G04 EAGLE Gerber RS-274X export*
G75*
%MOMM*%
%FSLAX34Y34*%
%LPD*%
%INSolderpaste Top*%
%IPPOS*%
%AMOC8*
5,1,8,0,0,1.08239X$1,22.5*%
G01*
%ADD10R,1.270000X3.175000*%
%ADD11R,2.000000X1.200000*%
%ADD12R,1.350000X0.600000*%


D10*
X83702Y630004D03*
X83702Y684614D03*
X109102Y630004D03*
X109102Y684614D03*
X134502Y630004D03*
X134502Y684614D03*
X159902Y630004D03*
X159902Y684614D03*
X185302Y630004D03*
X185302Y684614D03*
X210702Y630004D03*
X210702Y684614D03*
X236102Y630004D03*
X236102Y684614D03*
X261502Y630004D03*
X261502Y684614D03*
X286902Y630004D03*
X286902Y684614D03*
X312302Y630004D03*
X312302Y684614D03*
X337702Y630004D03*
X337702Y684614D03*
X363102Y630004D03*
X363102Y684614D03*
X388502Y630004D03*
X388502Y684614D03*
X413902Y630004D03*
X413902Y684614D03*
X439302Y630004D03*
X439302Y684614D03*
X464702Y630004D03*
X464702Y684614D03*
X490102Y630004D03*
X490102Y684614D03*
X515502Y630004D03*
X515502Y684614D03*
X540902Y630004D03*
X540902Y684614D03*
X566302Y630004D03*
X566302Y684614D03*
D11*
X634452Y211429D03*
X634452Y267429D03*
D12*
X597702Y224429D03*
X597702Y234429D03*
X597702Y244429D03*
X597702Y254429D03*
D11*
X14678Y267429D03*
X14678Y211429D03*
D12*
X51428Y254429D03*
X51428Y244429D03*
X51428Y234429D03*
X51428Y224429D03*
D10*
X738793Y630004D03*
X738793Y684614D03*
X764193Y630004D03*
X764193Y684614D03*
X789593Y630004D03*
X789593Y684614D03*
X814993Y630004D03*
X814993Y684614D03*
X840393Y630004D03*
X840393Y684614D03*
X865793Y630004D03*
X865793Y684614D03*
X891193Y630004D03*
X891193Y684614D03*
X916593Y630004D03*
X916593Y684614D03*
X941993Y630004D03*
X941993Y684614D03*
X967393Y630004D03*
X967393Y684614D03*
X992793Y630004D03*
X992793Y684614D03*
X1018193Y630004D03*
X1018193Y684614D03*
X1043593Y630004D03*
X1043593Y684614D03*
X1068993Y630004D03*
X1068993Y684614D03*
X1094393Y630004D03*
X1094393Y684614D03*
X1119793Y630004D03*
X1119793Y684614D03*
X1145193Y630004D03*
X1145193Y684614D03*
X1170593Y630004D03*
X1170593Y684614D03*
X1195993Y630004D03*
X1195993Y684614D03*
X1221393Y630004D03*
X1221393Y684614D03*
D11*
X1289543Y211429D03*
X1289543Y267429D03*
D12*
X1252793Y224429D03*
X1252793Y234429D03*
X1252793Y244429D03*
X1252793Y254429D03*
D11*
X669769Y267429D03*
X669769Y211429D03*
D12*
X706519Y254429D03*
X706519Y244429D03*
X706519Y234429D03*
X706519Y224429D03*
D10*
X83702Y1503104D03*
X83702Y1557714D03*
X109102Y1503104D03*
X109102Y1557714D03*
X134502Y1503104D03*
X134502Y1557714D03*
X159902Y1503104D03*
X159902Y1557714D03*
X185302Y1503104D03*
X185302Y1557714D03*
X210702Y1503104D03*
X210702Y1557714D03*
X236102Y1503104D03*
X236102Y1557714D03*
X261502Y1503104D03*
X261502Y1557714D03*
X286902Y1503104D03*
X286902Y1557714D03*
X312302Y1503104D03*
X312302Y1557714D03*
X337702Y1503104D03*
X337702Y1557714D03*
X363102Y1503104D03*
X363102Y1557714D03*
X388502Y1503104D03*
X388502Y1557714D03*
X413902Y1503104D03*
X413902Y1557714D03*
X439302Y1503104D03*
X439302Y1557714D03*
X464702Y1503104D03*
X464702Y1557714D03*
X490102Y1503104D03*
X490102Y1557714D03*
X515502Y1503104D03*
X515502Y1557714D03*
X540902Y1503104D03*
X540902Y1557714D03*
X566302Y1503104D03*
X566302Y1557714D03*
D11*
X634452Y1084529D03*
X634452Y1140529D03*
D12*
X597702Y1097529D03*
X597702Y1107529D03*
X597702Y1117529D03*
X597702Y1127529D03*
D11*
X14678Y1140529D03*
X14678Y1084529D03*
D12*
X51428Y1127529D03*
X51428Y1117529D03*
X51428Y1107529D03*
X51428Y1097529D03*
D10*
X738793Y1503104D03*
X738793Y1557714D03*
X764193Y1503104D03*
X764193Y1557714D03*
X789593Y1503104D03*
X789593Y1557714D03*
X814993Y1503104D03*
X814993Y1557714D03*
X840393Y1503104D03*
X840393Y1557714D03*
X865793Y1503104D03*
X865793Y1557714D03*
X891193Y1503104D03*
X891193Y1557714D03*
X916593Y1503104D03*
X916593Y1557714D03*
X941993Y1503104D03*
X941993Y1557714D03*
X967393Y1503104D03*
X967393Y1557714D03*
X992793Y1503104D03*
X992793Y1557714D03*
X1018193Y1503104D03*
X1018193Y1557714D03*
X1043593Y1503104D03*
X1043593Y1557714D03*
X1068993Y1503104D03*
X1068993Y1557714D03*
X1094393Y1503104D03*
X1094393Y1557714D03*
X1119793Y1503104D03*
X1119793Y1557714D03*
X1145193Y1503104D03*
X1145193Y1557714D03*
X1170593Y1503104D03*
X1170593Y1557714D03*
X1195993Y1503104D03*
X1195993Y1557714D03*
X1221393Y1503104D03*
X1221393Y1557714D03*
D11*
X1289543Y1084529D03*
X1289543Y1140529D03*
D12*
X1252793Y1097529D03*
X1252793Y1107529D03*
X1252793Y1117529D03*
X1252793Y1127529D03*
D11*
X669769Y1140529D03*
X669769Y1084529D03*
D12*
X706519Y1127529D03*
X706519Y1117529D03*
X706519Y1107529D03*
X706519Y1097529D03*
M02*
