G04 EAGLE Gerber RS-274X export*
G75*
%MOMM*%
%FSLAX34Y34*%
%LPD*%
%INSoldermask Top*%
%IPPOS*%
%AMOC8*
5,1,8,0,0,1.08239X$1,22.5*%
G01*
%ADD10C,3.251200*%
%ADD11C,0.838200*%
%ADD12R,1.473200X3.378200*%
%ADD13C,1.203200*%
%ADD14C,2.082800*%
%ADD15R,2.203200X1.403200*%
%ADD16R,1.553200X0.803200*%
%ADD17C,1.270000*%
%ADD18C,1.703200*%


D10*
X615002Y657609D03*
X35002Y167809D03*
X615002Y167609D03*
X35002Y657609D03*
D11*
X55548Y194937D03*
X616700Y599939D03*
D12*
X83702Y630004D03*
X83702Y684614D03*
X109102Y630004D03*
X109102Y684614D03*
X134502Y630004D03*
X134502Y684614D03*
X159902Y630004D03*
X159902Y684614D03*
X185302Y630004D03*
X185302Y684614D03*
X210702Y630004D03*
X210702Y684614D03*
X236102Y630004D03*
X236102Y684614D03*
X261502Y630004D03*
X261502Y684614D03*
X286902Y630004D03*
X286902Y684614D03*
X312302Y630004D03*
X312302Y684614D03*
X337702Y630004D03*
X337702Y684614D03*
X363102Y630004D03*
X363102Y684614D03*
X388502Y630004D03*
X388502Y684614D03*
X413902Y630004D03*
X413902Y684614D03*
X439302Y630004D03*
X439302Y684614D03*
X464702Y630004D03*
X464702Y684614D03*
X490102Y630004D03*
X490102Y684614D03*
X515502Y630004D03*
X515502Y684614D03*
X540902Y630004D03*
X540902Y684614D03*
X566302Y630004D03*
X566302Y684614D03*
D13*
X96402Y657309D03*
X553602Y657309D03*
D14*
X83756Y47609D03*
X83756Y22209D03*
X109156Y47609D03*
X109156Y22209D03*
X134556Y47609D03*
X134556Y22209D03*
X159956Y47609D03*
X159956Y22209D03*
X185356Y47609D03*
X185356Y22209D03*
X210756Y47609D03*
X210756Y22209D03*
X236156Y47609D03*
X236156Y22209D03*
X261556Y47609D03*
X261556Y22209D03*
X286956Y47609D03*
X286956Y22209D03*
X312356Y47609D03*
X312356Y22209D03*
X337756Y47609D03*
X337756Y22209D03*
X363156Y47609D03*
X363156Y22209D03*
X388556Y47609D03*
X388556Y22209D03*
X413956Y47609D03*
X413956Y22209D03*
X439356Y47609D03*
X439356Y22209D03*
X464756Y47609D03*
X464756Y22209D03*
X490156Y47609D03*
X490156Y22209D03*
X515556Y47609D03*
X515556Y22209D03*
X540956Y47609D03*
X540956Y22209D03*
X566356Y47609D03*
X566356Y22209D03*
D15*
X634452Y211429D03*
X634452Y267429D03*
D16*
X597702Y224429D03*
X597702Y234429D03*
X597702Y244429D03*
X597702Y254429D03*
D15*
X14678Y267429D03*
X14678Y211429D03*
D16*
X51428Y254429D03*
X51428Y244429D03*
X51428Y234429D03*
X51428Y224429D03*
D10*
X615002Y427409D03*
X35002Y427339D03*
X35002Y308989D03*
X615202Y308989D03*
X615002Y105789D03*
X35002Y105789D03*
X1270093Y657609D03*
X690093Y167809D03*
X1270093Y167609D03*
X690093Y657609D03*
D11*
X710639Y194937D03*
X1271791Y599939D03*
D12*
X738793Y630004D03*
X738793Y684614D03*
X764193Y630004D03*
X764193Y684614D03*
X789593Y630004D03*
X789593Y684614D03*
X814993Y630004D03*
X814993Y684614D03*
X840393Y630004D03*
X840393Y684614D03*
X865793Y630004D03*
X865793Y684614D03*
X891193Y630004D03*
X891193Y684614D03*
X916593Y630004D03*
X916593Y684614D03*
X941993Y630004D03*
X941993Y684614D03*
X967393Y630004D03*
X967393Y684614D03*
X992793Y630004D03*
X992793Y684614D03*
X1018193Y630004D03*
X1018193Y684614D03*
X1043593Y630004D03*
X1043593Y684614D03*
X1068993Y630004D03*
X1068993Y684614D03*
X1094393Y630004D03*
X1094393Y684614D03*
X1119793Y630004D03*
X1119793Y684614D03*
X1145193Y630004D03*
X1145193Y684614D03*
X1170593Y630004D03*
X1170593Y684614D03*
X1195993Y630004D03*
X1195993Y684614D03*
X1221393Y630004D03*
X1221393Y684614D03*
D13*
X751493Y657309D03*
X1208693Y657309D03*
D14*
X738847Y47609D03*
X738847Y22209D03*
X764247Y47609D03*
X764247Y22209D03*
X789647Y47609D03*
X789647Y22209D03*
X815047Y47609D03*
X815047Y22209D03*
X840447Y47609D03*
X840447Y22209D03*
X865847Y47609D03*
X865847Y22209D03*
X891247Y47609D03*
X891247Y22209D03*
X916647Y47609D03*
X916647Y22209D03*
X942047Y47609D03*
X942047Y22209D03*
X967447Y47609D03*
X967447Y22209D03*
X992847Y47609D03*
X992847Y22209D03*
X1018247Y47609D03*
X1018247Y22209D03*
X1043647Y47609D03*
X1043647Y22209D03*
X1069047Y47609D03*
X1069047Y22209D03*
X1094447Y47609D03*
X1094447Y22209D03*
X1119847Y47609D03*
X1119847Y22209D03*
X1145247Y47609D03*
X1145247Y22209D03*
X1170647Y47609D03*
X1170647Y22209D03*
X1196047Y47609D03*
X1196047Y22209D03*
X1221447Y47609D03*
X1221447Y22209D03*
D15*
X1289543Y211429D03*
X1289543Y267429D03*
D16*
X1252793Y224429D03*
X1252793Y234429D03*
X1252793Y244429D03*
X1252793Y254429D03*
D15*
X669769Y267429D03*
X669769Y211429D03*
D16*
X706519Y254429D03*
X706519Y244429D03*
X706519Y234429D03*
X706519Y224429D03*
D10*
X1270093Y427409D03*
X690093Y427339D03*
X690093Y308989D03*
X1270293Y308989D03*
X1270093Y105789D03*
X690093Y105789D03*
X615002Y1530709D03*
X35002Y1040909D03*
X615002Y1040709D03*
X35002Y1530709D03*
D11*
X55548Y1068037D03*
X616700Y1473039D03*
D12*
X83702Y1503104D03*
X83702Y1557714D03*
X109102Y1503104D03*
X109102Y1557714D03*
X134502Y1503104D03*
X134502Y1557714D03*
X159902Y1503104D03*
X159902Y1557714D03*
X185302Y1503104D03*
X185302Y1557714D03*
X210702Y1503104D03*
X210702Y1557714D03*
X236102Y1503104D03*
X236102Y1557714D03*
X261502Y1503104D03*
X261502Y1557714D03*
X286902Y1503104D03*
X286902Y1557714D03*
X312302Y1503104D03*
X312302Y1557714D03*
X337702Y1503104D03*
X337702Y1557714D03*
X363102Y1503104D03*
X363102Y1557714D03*
X388502Y1503104D03*
X388502Y1557714D03*
X413902Y1503104D03*
X413902Y1557714D03*
X439302Y1503104D03*
X439302Y1557714D03*
X464702Y1503104D03*
X464702Y1557714D03*
X490102Y1503104D03*
X490102Y1557714D03*
X515502Y1503104D03*
X515502Y1557714D03*
X540902Y1503104D03*
X540902Y1557714D03*
X566302Y1503104D03*
X566302Y1557714D03*
D13*
X96402Y1530409D03*
X553602Y1530409D03*
D14*
X83756Y920709D03*
X83756Y895309D03*
X109156Y920709D03*
X109156Y895309D03*
X134556Y920709D03*
X134556Y895309D03*
X159956Y920709D03*
X159956Y895309D03*
X185356Y920709D03*
X185356Y895309D03*
X210756Y920709D03*
X210756Y895309D03*
X236156Y920709D03*
X236156Y895309D03*
X261556Y920709D03*
X261556Y895309D03*
X286956Y920709D03*
X286956Y895309D03*
X312356Y920709D03*
X312356Y895309D03*
X337756Y920709D03*
X337756Y895309D03*
X363156Y920709D03*
X363156Y895309D03*
X388556Y920709D03*
X388556Y895309D03*
X413956Y920709D03*
X413956Y895309D03*
X439356Y920709D03*
X439356Y895309D03*
X464756Y920709D03*
X464756Y895309D03*
X490156Y920709D03*
X490156Y895309D03*
X515556Y920709D03*
X515556Y895309D03*
X540956Y920709D03*
X540956Y895309D03*
X566356Y920709D03*
X566356Y895309D03*
D15*
X634452Y1084529D03*
X634452Y1140529D03*
D16*
X597702Y1097529D03*
X597702Y1107529D03*
X597702Y1117529D03*
X597702Y1127529D03*
D15*
X14678Y1140529D03*
X14678Y1084529D03*
D16*
X51428Y1127529D03*
X51428Y1117529D03*
X51428Y1107529D03*
X51428Y1097529D03*
D10*
X615002Y1300509D03*
X35002Y1300439D03*
X35002Y1182089D03*
X615202Y1182089D03*
X615002Y978889D03*
X35002Y978889D03*
X1270093Y1530709D03*
X690093Y1040909D03*
X1270093Y1040709D03*
X690093Y1530709D03*
D11*
X710639Y1068037D03*
X1271791Y1473039D03*
D12*
X738793Y1503104D03*
X738793Y1557714D03*
X764193Y1503104D03*
X764193Y1557714D03*
X789593Y1503104D03*
X789593Y1557714D03*
X814993Y1503104D03*
X814993Y1557714D03*
X840393Y1503104D03*
X840393Y1557714D03*
X865793Y1503104D03*
X865793Y1557714D03*
X891193Y1503104D03*
X891193Y1557714D03*
X916593Y1503104D03*
X916593Y1557714D03*
X941993Y1503104D03*
X941993Y1557714D03*
X967393Y1503104D03*
X967393Y1557714D03*
X992793Y1503104D03*
X992793Y1557714D03*
X1018193Y1503104D03*
X1018193Y1557714D03*
X1043593Y1503104D03*
X1043593Y1557714D03*
X1068993Y1503104D03*
X1068993Y1557714D03*
X1094393Y1503104D03*
X1094393Y1557714D03*
X1119793Y1503104D03*
X1119793Y1557714D03*
X1145193Y1503104D03*
X1145193Y1557714D03*
X1170593Y1503104D03*
X1170593Y1557714D03*
X1195993Y1503104D03*
X1195993Y1557714D03*
X1221393Y1503104D03*
X1221393Y1557714D03*
D13*
X751493Y1530409D03*
X1208693Y1530409D03*
D14*
X738847Y920709D03*
X738847Y895309D03*
X764247Y920709D03*
X764247Y895309D03*
X789647Y920709D03*
X789647Y895309D03*
X815047Y920709D03*
X815047Y895309D03*
X840447Y920709D03*
X840447Y895309D03*
X865847Y920709D03*
X865847Y895309D03*
X891247Y920709D03*
X891247Y895309D03*
X916647Y920709D03*
X916647Y895309D03*
X942047Y920709D03*
X942047Y895309D03*
X967447Y920709D03*
X967447Y895309D03*
X992847Y920709D03*
X992847Y895309D03*
X1018247Y920709D03*
X1018247Y895309D03*
X1043647Y920709D03*
X1043647Y895309D03*
X1069047Y920709D03*
X1069047Y895309D03*
X1094447Y920709D03*
X1094447Y895309D03*
X1119847Y920709D03*
X1119847Y895309D03*
X1145247Y920709D03*
X1145247Y895309D03*
X1170647Y920709D03*
X1170647Y895309D03*
X1196047Y920709D03*
X1196047Y895309D03*
X1221447Y920709D03*
X1221447Y895309D03*
D15*
X1289543Y1084529D03*
X1289543Y1140529D03*
D16*
X1252793Y1097529D03*
X1252793Y1107529D03*
X1252793Y1117529D03*
X1252793Y1127529D03*
D15*
X669769Y1140529D03*
X669769Y1084529D03*
D16*
X706519Y1127529D03*
X706519Y1117529D03*
X706519Y1107529D03*
X706519Y1097529D03*
D10*
X1270093Y1300509D03*
X690093Y1300439D03*
X690093Y1182089D03*
X1270293Y1182089D03*
X1270093Y978889D03*
X690093Y978889D03*
D13*
X-26238Y1730299D03*
X1331316Y1730299D03*
D17*
X-35293Y152400D02*
X-35290Y152622D01*
X-35282Y152844D01*
X-35268Y153066D01*
X-35249Y153288D01*
X-35225Y153508D01*
X-35195Y153729D01*
X-35160Y153948D01*
X-35119Y154167D01*
X-35073Y154384D01*
X-35022Y154600D01*
X-34965Y154815D01*
X-34903Y155029D01*
X-34836Y155240D01*
X-34764Y155451D01*
X-34686Y155659D01*
X-34604Y155865D01*
X-34516Y156069D01*
X-34424Y156272D01*
X-34326Y156471D01*
X-34224Y156668D01*
X-34117Y156863D01*
X-34005Y157055D01*
X-33888Y157244D01*
X-33767Y157431D01*
X-33641Y157614D01*
X-33511Y157794D01*
X-33376Y157971D01*
X-33238Y158144D01*
X-33095Y158314D01*
X-32947Y158481D01*
X-32796Y158644D01*
X-32641Y158803D01*
X-32482Y158958D01*
X-32319Y159109D01*
X-32152Y159257D01*
X-31982Y159400D01*
X-31809Y159538D01*
X-31632Y159673D01*
X-31452Y159803D01*
X-31269Y159929D01*
X-31082Y160050D01*
X-30893Y160167D01*
X-30701Y160279D01*
X-30506Y160386D01*
X-30309Y160488D01*
X-30110Y160586D01*
X-29907Y160678D01*
X-29703Y160766D01*
X-29497Y160848D01*
X-29289Y160926D01*
X-29078Y160998D01*
X-28867Y161065D01*
X-28653Y161127D01*
X-28438Y161184D01*
X-28222Y161235D01*
X-28005Y161281D01*
X-27786Y161322D01*
X-27567Y161357D01*
X-27346Y161387D01*
X-27126Y161411D01*
X-26904Y161430D01*
X-26682Y161444D01*
X-26460Y161452D01*
X-26238Y161455D01*
X-26016Y161452D01*
X-25794Y161444D01*
X-25572Y161430D01*
X-25350Y161411D01*
X-25130Y161387D01*
X-24909Y161357D01*
X-24690Y161322D01*
X-24471Y161281D01*
X-24254Y161235D01*
X-24038Y161184D01*
X-23823Y161127D01*
X-23609Y161065D01*
X-23398Y160998D01*
X-23187Y160926D01*
X-22979Y160848D01*
X-22773Y160766D01*
X-22569Y160678D01*
X-22366Y160586D01*
X-22167Y160488D01*
X-21970Y160386D01*
X-21775Y160279D01*
X-21583Y160167D01*
X-21394Y160050D01*
X-21207Y159929D01*
X-21024Y159803D01*
X-20844Y159673D01*
X-20667Y159538D01*
X-20494Y159400D01*
X-20324Y159257D01*
X-20157Y159109D01*
X-19994Y158958D01*
X-19835Y158803D01*
X-19680Y158644D01*
X-19529Y158481D01*
X-19381Y158314D01*
X-19238Y158144D01*
X-19100Y157971D01*
X-18965Y157794D01*
X-18835Y157614D01*
X-18709Y157431D01*
X-18588Y157244D01*
X-18471Y157055D01*
X-18359Y156863D01*
X-18252Y156668D01*
X-18150Y156471D01*
X-18052Y156272D01*
X-17960Y156069D01*
X-17872Y155865D01*
X-17790Y155659D01*
X-17712Y155451D01*
X-17640Y155240D01*
X-17573Y155029D01*
X-17511Y154815D01*
X-17454Y154600D01*
X-17403Y154384D01*
X-17357Y154167D01*
X-17316Y153948D01*
X-17281Y153729D01*
X-17251Y153508D01*
X-17227Y153288D01*
X-17208Y153066D01*
X-17194Y152844D01*
X-17186Y152622D01*
X-17183Y152400D01*
X-17186Y152178D01*
X-17194Y151956D01*
X-17208Y151734D01*
X-17227Y151512D01*
X-17251Y151292D01*
X-17281Y151071D01*
X-17316Y150852D01*
X-17357Y150633D01*
X-17403Y150416D01*
X-17454Y150200D01*
X-17511Y149985D01*
X-17573Y149771D01*
X-17640Y149560D01*
X-17712Y149349D01*
X-17790Y149141D01*
X-17872Y148935D01*
X-17960Y148731D01*
X-18052Y148528D01*
X-18150Y148329D01*
X-18252Y148132D01*
X-18359Y147937D01*
X-18471Y147745D01*
X-18588Y147556D01*
X-18709Y147369D01*
X-18835Y147186D01*
X-18965Y147006D01*
X-19100Y146829D01*
X-19238Y146656D01*
X-19381Y146486D01*
X-19529Y146319D01*
X-19680Y146156D01*
X-19835Y145997D01*
X-19994Y145842D01*
X-20157Y145691D01*
X-20324Y145543D01*
X-20494Y145400D01*
X-20667Y145262D01*
X-20844Y145127D01*
X-21024Y144997D01*
X-21207Y144871D01*
X-21394Y144750D01*
X-21583Y144633D01*
X-21775Y144521D01*
X-21970Y144414D01*
X-22167Y144312D01*
X-22366Y144214D01*
X-22569Y144122D01*
X-22773Y144034D01*
X-22979Y143952D01*
X-23187Y143874D01*
X-23398Y143802D01*
X-23609Y143735D01*
X-23823Y143673D01*
X-24038Y143616D01*
X-24254Y143565D01*
X-24471Y143519D01*
X-24690Y143478D01*
X-24909Y143443D01*
X-25130Y143413D01*
X-25350Y143389D01*
X-25572Y143370D01*
X-25794Y143356D01*
X-26016Y143348D01*
X-26238Y143345D01*
X-26460Y143348D01*
X-26682Y143356D01*
X-26904Y143370D01*
X-27126Y143389D01*
X-27346Y143413D01*
X-27567Y143443D01*
X-27786Y143478D01*
X-28005Y143519D01*
X-28222Y143565D01*
X-28438Y143616D01*
X-28653Y143673D01*
X-28867Y143735D01*
X-29078Y143802D01*
X-29289Y143874D01*
X-29497Y143952D01*
X-29703Y144034D01*
X-29907Y144122D01*
X-30110Y144214D01*
X-30309Y144312D01*
X-30506Y144414D01*
X-30701Y144521D01*
X-30893Y144633D01*
X-31082Y144750D01*
X-31269Y144871D01*
X-31452Y144997D01*
X-31632Y145127D01*
X-31809Y145262D01*
X-31982Y145400D01*
X-32152Y145543D01*
X-32319Y145691D01*
X-32482Y145842D01*
X-32641Y145997D01*
X-32796Y146156D01*
X-32947Y146319D01*
X-33095Y146486D01*
X-33238Y146656D01*
X-33376Y146829D01*
X-33511Y147006D01*
X-33641Y147186D01*
X-33767Y147369D01*
X-33888Y147556D01*
X-34005Y147745D01*
X-34117Y147937D01*
X-34224Y148132D01*
X-34326Y148329D01*
X-34424Y148528D01*
X-34516Y148731D01*
X-34604Y148935D01*
X-34686Y149141D01*
X-34764Y149349D01*
X-34836Y149560D01*
X-34903Y149771D01*
X-34965Y149985D01*
X-35022Y150200D01*
X-35073Y150416D01*
X-35119Y150633D01*
X-35160Y150852D01*
X-35195Y151071D01*
X-35225Y151292D01*
X-35249Y151512D01*
X-35268Y151734D01*
X-35282Y151956D01*
X-35290Y152178D01*
X-35293Y152400D01*
D18*
X-26238Y152400D03*
M02*
