M48
;GenerationSoftware,Autodesk,EAGLE,9.5.2*%
;CreationDate,2020-10-27T19:22:43Z*%
FMAT,2
ICI,OFF
METRIC,TZ,000.000
T4C0.381
T3C1.000
T2C1.016
T1C3.048
%
G90
M71
T1
X69009Y130044
X127009Y104071
X61500Y65761
X3500Y16781
X61500Y16761
X3500Y65761
X69009Y153071
X127009Y97889
X61500Y42741
X3500Y42734
X3500Y30899
X61520Y30899
X61500Y10579
X3500Y10579
X127009Y65761
X69009Y16781
X127009Y16761
X69009Y65761
X69009Y97889
X127009Y130051
X127009Y42741
X69009Y42734
X69009Y30899
X127029Y30899
X127009Y10579
X69009Y10579
X61500Y153071
X3500Y104091
X61500Y104071
X3500Y153071
X69009Y118209
X127029Y118209
X61500Y130051
X3500Y130044
X3500Y118209
X61520Y118209
X61500Y97889
X3500Y97889
X127009Y153071
X69009Y104091
T2
X38856Y92071
X114525Y92071
X114525Y89531
X117065Y92071
X117065Y89531
X119605Y92071
X119605Y89531
X122145Y92071
X122145Y89531
X8376Y4761
X8376Y2221
X10916Y4761
X10916Y2221
X13456Y4761
X13456Y2221
X15996Y4761
X15996Y2221
X18536Y4761
X18536Y2221
X21076Y4761
X21076Y2221
X23616Y4761
X23616Y2221
X26156Y4761
X26156Y2221
X28696Y4761
X28696Y2221
X31236Y4761
X31236Y2221
X33776Y4761
X33776Y2221
X36316Y4761
X36316Y2221
X38856Y4761
X38856Y2221
X41396Y4761
X41396Y2221
X43936Y4761
X43936Y2221
X46476Y4761
X46476Y2221
X49016Y4761
X49016Y2221
X51556Y4761
X51556Y2221
X54096Y4761
X54096Y2221
X56636Y4761
X56636Y2221
X73885Y4761
X73885Y2221
X76425Y4761
X76425Y2221
X78965Y4761
X78965Y2221
X81505Y4761
X81505Y2221
X84045Y4761
X84045Y2221
X86585Y4761
X86585Y2221
X89125Y4761
X89125Y2221
X91665Y4761
X91665Y2221
X94205Y4761
X94205Y2221
X96745Y4761
X96745Y2221
X99285Y4761
X99285Y2221
X101825Y4761
X101825Y2221
X104365Y4761
X104365Y2221
X106905Y4761
X106905Y2221
X109445Y4761
X109445Y2221
X111985Y4761
X111985Y2221
X114525Y4761
X114525Y2221
X117065Y4761
X117065Y2221
X119605Y4761
X119605Y2221
X122145Y4761
X122145Y2221
X8376Y92071
X8376Y89531
X10916Y92071
X10916Y89531
X13456Y92071
X13456Y89531
X15996Y92071
X15996Y89531
X18536Y92071
X18536Y89531
X21076Y92071
X21076Y89531
X23616Y92071
X23616Y89531
X26156Y92071
X26156Y89531
X28696Y92071
X28696Y89531
X31236Y92071
X31236Y89531
X33776Y92071
X33776Y89531
X36316Y92071
X36316Y89531
X38856Y89531
X41396Y92071
X41396Y89531
X43936Y92071
X43936Y89531
X46476Y92071
X46476Y89531
X49016Y92071
X49016Y89531
X51556Y92071
X51556Y89531
X54096Y92071
X54096Y89531
X56636Y92071
X56636Y89531
X73885Y92071
X73885Y89531
X76425Y92071
X76425Y89531
X78965Y92071
X78965Y89531
X81505Y92071
X81505Y89531
X84045Y92071
X84045Y89531
X86585Y92071
X86585Y89531
X89125Y92071
X89125Y89531
X91665Y92071
X91665Y89531
X94205Y92071
X94205Y89531
X96745Y92071
X96745Y89531
X99285Y92071
X99285Y89531
X101825Y92071
X101825Y89531
X104365Y92071
X104365Y89531
X106905Y92071
X106905Y89531
X109445Y92071
X109445Y89531
X111985Y92071
X111985Y89531
T3
X9640Y65731
X55360Y65731
X75149Y65731
X120869Y65731
X9640Y153041
X55360Y153041
X75149Y153041
X120869Y153041
T4
X109359Y152901
X114569Y152851
X84089Y153021
X77089Y146291
X71509Y120871
X78121Y94854
X71459Y100821
X71589Y127791
X71708Y137291
X78089Y137291
X78089Y127791
X114225Y94085
X6034Y26497
X77923Y158044
X89099Y158171
X96719Y158171
X109419Y158171
X114499Y158171
X108637Y94085
X88408Y93965
X95393Y94092
X71543Y113807
X124732Y140915
X80749Y94805
X6970Y62987
X28712Y65527
X8392Y20442
X8326Y24495
X6995Y68448
X58060Y53725
X12710Y59685
X14742Y60066
X58617Y54599
X3447Y27395
X6097Y28115
X6373Y58634
X13580Y55981
X23580Y56021
X23580Y52521
X30580Y52021
X30080Y56521
X39080Y56021
X39080Y52021
X44080Y52021
X44080Y56021
X49342Y56021
X49420Y52061
X56775Y65452
X55540Y51891
X19380Y57321
X19080Y52521
X10034Y24497
X59349Y20363
X55540Y55891
X13430Y65781
X23610Y65701
X31260Y65681
X39600Y65441
X43850Y65591
X49060Y65541
X18580Y65711
X11580Y58981
X6000Y33561
X12612Y7544
X5950Y13511
X6080Y40481
X6199Y49981
X125569Y89271
X12580Y49981
X12580Y40481
X48716Y6775
X60060Y1961
X12414Y70734
X23590Y70861
X31210Y70861
X43910Y70861
X48990Y70861
X43128Y6775
X22899Y6655
X29884Y6782
X59223Y53605
X15240Y7495
X72479Y62987
X94221Y65527
X73901Y20442
X73835Y24495
X72504Y68448
X123569Y53725
X78219Y59685
X80251Y60066
X124126Y54599
X68956Y27395
X71606Y28115
X71882Y58634
X79089Y55981
X89089Y56021
X89089Y52521
X96089Y52021
X95589Y56521
X104589Y56021
X104589Y52021
X109589Y52021
X109589Y56021
X114851Y56021
X114929Y52061
X122284Y65452
X121049Y51891
X84889Y57321
X84589Y52521
X75543Y24497
X124858Y20363
X121049Y55891
X78939Y65781
X89119Y65701
X96769Y65681
X105109Y65441
X109359Y65591
X114569Y65541
X84089Y65711
X77089Y58981
X71509Y33561
X78121Y7544
X71459Y13511
X71589Y40481
X71708Y49981
X78089Y49981
X78089Y40481
X114225Y6775
X125569Y1961
X77923Y70734
X89099Y70861
X96719Y70861
X109419Y70861
X114499Y70861
X108637Y6775
X88408Y6655
X95393Y6782
X71543Y26497
X124732Y53605
X80749Y7495
X6970Y150297
X28712Y152837
X8392Y107752
X8326Y111805
X6995Y155758
X58060Y141035
X12710Y146995
X14742Y147376
X58617Y141909
X3447Y114705
X6097Y115425
X6373Y145944
X13580Y143291
X23580Y143331
X23580Y139831
X30580Y139331
X30080Y143831
X39080Y143331
X39080Y139331
X44080Y139331
X44080Y143331
X49342Y143331
X49420Y139371
X56775Y152762
X55540Y139201
X19380Y144631
X19080Y139831
X10034Y111807
X59349Y107673
X55540Y143201
X13430Y153091
X23610Y153011
X31260Y152991
X39600Y152751
X43850Y152901
X49060Y152851
X31210Y158171
X18580Y153021
X11580Y146291
X6000Y120871
X12612Y94854
X5950Y100821
X6080Y127791
X6199Y137291
X12580Y137291
X12580Y127791
X48716Y94085
X60060Y89271
X12414Y158044
X23590Y158171
X43910Y158171
X48990Y158171
X43128Y94085
X22899Y93965
X29884Y94092
X6034Y113807
X59223Y140915
X15240Y94805
X72479Y150297
X94221Y152837
X73901Y107752
X73835Y111805
X72504Y155758
X123569Y141035
X78219Y146995
X80251Y147376
X124126Y141909
X68956Y114705
X71606Y115425
X71882Y145944
X79089Y143291
X89089Y143331
X89089Y139831
X96089Y139331
X95589Y143831
X104589Y143331
X104589Y139331
X109589Y139331
X109589Y143331
X114851Y143331
X114929Y139371
X122284Y152762
X121049Y139201
X84889Y144631
X84589Y139831
X75543Y111807
X124858Y107673
X121049Y143201
X78939Y153091
X89119Y153011
X96769Y152991
X105109Y152751
M30